<svg width="12" height="10" viewBox="0 0 12 10" fill="none" xmlns="http://www.w3.org/2000/svg">
<path d="M7.72724 0.59375H0.673828V6.56454H7.72724V0.59375Z" stroke="black" stroke-width="0.746374" stroke-linecap="round" stroke-linejoin="round"/>
<path d="M7.72754 2.89062H9.60845L11.0191 4.2685V6.56496H7.72754V2.89062Z" stroke="black" stroke-width="0.746374" stroke-linecap="round" stroke-linejoin="round"/>
<path d="M2.78983 8.86091C3.43907 8.86091 3.96539 8.34683 3.96539 7.71268C3.96539 7.07853 3.43907 6.56445 2.78983 6.56445C2.14058 6.56445 1.61426 7.07853 1.61426 7.71268C1.61426 8.34683 2.14058 8.86091 2.78983 8.86091Z" stroke="black" stroke-width="0.746374" stroke-linecap="round" stroke-linejoin="round"/>
<path d="M8.90311 8.86091C9.55236 8.86091 10.0787 8.34683 10.0787 7.71268C10.0787 7.07853 9.55236 6.56445 8.90311 6.56445C8.25386 6.56445 7.72754 7.07853 7.72754 7.71268C7.72754 8.34683 8.25386 8.86091 8.90311 8.86091Z" stroke="black" stroke-width="0.746374" stroke-linecap="round" stroke-linejoin="round"/>
</svg>
