<svg width="12" height="11" viewBox="0 0 12 11" fill="none" xmlns="http://www.w3.org/2000/svg">
<path d="M9.98387 5.59375V10.5936H1.70801V5.59375" stroke="black" stroke-width="0.75" stroke-linecap="round" stroke-linejoin="round"/>
<path d="M11.0187 3.09375H0.673828V5.59369H11.0187V3.09375Z" stroke="black" stroke-width="0.75" stroke-linecap="round" stroke-linejoin="round"/>
<path d="M5.8457 10.5936V3.09375" stroke="black" stroke-width="0.75" stroke-linecap="round" stroke-linejoin="round"/>
<path d="M5.84628 3.09369H3.51869C3.17574 3.09369 2.84683 2.96199 2.60433 2.72758C2.36182 2.49316 2.22559 2.17523 2.22559 1.84372C2.22559 1.51221 2.36182 1.19427 2.60433 0.959857C2.84683 0.725443 3.17574 0.59375 3.51869 0.59375C5.32903 0.59375 5.84628 3.09369 5.84628 3.09369Z" stroke="black" stroke-width="0.75" stroke-linecap="round" stroke-linejoin="round"/>
<path d="M5.8457 3.09369H8.17329C8.51624 3.09369 8.84515 2.96199 9.08765 2.72758C9.33015 2.49316 9.46639 2.17523 9.46639 1.84372C9.46639 1.51221 9.33015 1.19427 9.08765 0.959857C8.84515 0.725443 8.51624 0.59375 8.17329 0.59375C6.36294 0.59375 5.8457 3.09369 5.8457 3.09369Z" stroke="black" stroke-width="0.75" stroke-linecap="round" stroke-linejoin="round"/>
</svg>
